<svg id="Layer_1" data-name="Layer 1" xmlns="http://www.w3.org/2000/svg" viewBox="0 0 71.03 71.03"><defs><style>.cls-1{fill:#5b5b5b;}.cls-2{fill:#191919;}.cls-3{fill:#ff0;}.cls-4{fill:#fff;opacity:0.02;}</style></defs><title>Newsletter-logo</title><path class="cls-1" d="M56.45,4.06H3.28A6.9,6.9,0,0,0-3.62,11V64.13A6.9,6.9,0,0,0,3.28,71H56.45a6.9,6.9,0,0,0,6.9-6.9V11A6.9,6.9,0,0,0,56.45,4.06Z" transform="translate(3.62)"/><path class="cls-2" d="M25.51,36.5v2.64l3.19-5.57c-1.2-1.92-2.3-3.74-3.27-5.42C25.49,30.67,25.51,33.38,25.51,36.5Z" transform="translate(3.62)"/><path class="cls-2" d="M16.29,10.7h9.08L34,24.31,47.88,0H7.34A6.9,6.9,0,0,0,.44,6.9V60.07A6.9,6.9,0,0,0,7.34,67H9.61l6.68-11.69Z" transform="translate(3.62)"/><path class="cls-2" d="M60.51,0H47.88L34,24.31l5.26,8.3c1.14,1.79,2.19,3.54,3.17,5.24-.07-2.49-.09-5-.09-7.74V10.7h9.22V56.28H42.9l-13.76-22c-.16-.25-.29-.47-.44-.72l-3.19,5.57V56.28H16.29v-1L9.61,67h50.9a6.9,6.9,0,0,0,6.9-6.9V6.9A6.9,6.9,0,0,0,60.51,0Z" transform="translate(3.62)"/><path class="cls-3" d="M29.14,34.29l13.76,22h8.65V10.7H42.33V30.11c0,2.71,0,5.25.09,7.74-1-1.7-2-3.45-3.17-5.24L34,24.31,28.7,33.57C28.85,33.82,29,34,29.14,34.29Z" transform="translate(3.62)"/><path class="cls-3" d="M16.29,10.7V55.28l9.22-16.14V36.5c0-3.12,0-5.83-.08-8.35,1,1.68,2.07,3.5,3.27,5.42L34,24.31,25.37,10.7Z" transform="translate(3.62)"/><path class="cls-4" d="M7.34,0A6.9,6.9,0,0,0,.44,6.9V60.07A6.9,6.9,0,0,0,7.34,67H9.61l6.68-11.69,9.22-16.14,3.19-5.57L34,24.31,47.88,0Z" transform="translate(3.62)"/><polygon class="cls-3" points="19.91 56.28 29.13 56.28 29.13 39.15 19.91 55.28 19.91 56.28"/></svg>